<svg xmlns="http://www.w3.org/2000/svg" width="16" height="15" fill="none" viewBox="0 0 21 20"><path fill="#FFDC85" stroke="#1C1C1C" stroke-width=".879" d="M10.69 1.613a2.033 2.033 0 0 0-3.562 0L.836 12.8c-.777 1.38.183 3.14 1.781 3.14h12.584c1.599 0 2.558-1.76 1.781-3.14L10.69 1.613Z"/><mask id="warning-icon-triangle_svg__a" fill="#fff"><path fill-rule="evenodd" d="M9.568 5.343c0-.336-.295-.608-.659-.608-.364 0-.659.272-.659.608V9.4c0 .336.295.609.66.609.363 0 .658-.273.658-.609V5.343Zm-.659 7.96a.879.879 0 1 0 0-1.757.879.879 0 0 0 0 1.757Z" clip-rule="evenodd"/></mask><path fill="#1C1C1C" fill-rule="evenodd" d="M9.568 5.343c0-.336-.295-.608-.659-.608-.364 0-.659.272-.659.608V9.4c0 .336.295.609.66.609.363 0 .658-.273.658-.609V5.343Zm-.659 7.96a.879.879 0 1 0 0-1.757.879.879 0 0 0 0 1.757Z" clip-rule="evenodd"/><path fill="#FFDC85" d="M8.91 4.735v-.088.088Zm.658.608h.088-.088Zm-1.318 0h-.088.088Zm0 4.056h.088-.088Zm1.318 0H9.48h.088ZM8.91 4.823c.322 0 .571.24.571.52h.176c0-.39-.341-.696-.747-.696v.176Zm-.571.52c0-.28.249-.52.571-.52v-.176c-.406 0-.747.305-.747.696h.176Zm0 4.056V5.343h-.176V9.4h.176Zm.571.52c-.322 0-.571-.239-.571-.52h-.176c0 .391.341.697.747.697V9.92Zm.571-.52c0 .281-.249.52-.57.52v.176c.405 0 .746-.305.746-.696H9.48Zm0-4.056V9.4h.176V5.343H9.48Zm.22 7.081a.79.79 0 0 1-.79.791v.176a.967.967 0 0 0 .966-.967H9.7Zm-.79-.79a.79.79 0 0 1 .79.79h.176a.967.967 0 0 0-.967-.966v.175Zm-.792.79a.79.79 0 0 1 .791-.79v-.176a.967.967 0 0 0-.967.966h.176Zm.791.791a.79.79 0 0 1-.79-.79h-.177c0 .533.433.966.967.966v-.176Z" mask="url(#warning-icon-triangle_svg__a)"/></svg>