<svg xmlns="http://www.w3.org/2000/svg" width="28" height="28" fill="none"><g clip-path="url(#gbtn-progress-no-background_svg__a)"><path d="M0 14C0 6.267 6.242 0 13.945 0c7.702 0 13.943 6.267 13.943 14 0 6.766-4.777 12.41-11.131 13.716-.908.187-1.849.284-2.809.284C6.245 28 0 21.703 0 14Z"/><g filter="url(#gbtn-progress-no-background_svg__b)"><path stroke="#fff" stroke-linecap="round" stroke-width="1.392" d="M24 14c0 1.978-.55 3.911-1.58 5.556-1.03 1.644-2.493 2.926-4.206 3.683a8.827 8.827 0 0 1-5.415.569C10.98 23.422 9.31 22.47 8 21.07"/></g></g><defs><clipPath id="gbtn-progress-no-background_svg__a"><path fill="#fff" d="M0 0h28v28H0z"/></clipPath><filter id="gbtn-progress-no-background_svg__b" width="25.392" height="19.392" x="3.304" y="13.304" color-interpolation-filters="sRGB" filterUnits="userSpaceOnUse"><feFlood flood-opacity="0" result="BackgroundImageFix"/><feColorMatrix in="SourceAlpha" result="hardAlpha" values="0 0 0 0 0 0 0 0 0 0 0 0 0 0 0 0 0 0 127 0"/><feOffset dy="4"/><feGaussianBlur stdDeviation="2"/><feComposite in2="hardAlpha" operator="out"/><feColorMatrix values="0 0 0 0 0 0 0 0 0 0 0 0 0 0 0 0 0 0 0.25 0"/><feBlend in2="BackgroundImageFix" result="effect1_dropShadow_7509_3197"/><feBlend in="SourceGraphic" in2="effect1_dropShadow_7509_3197" result="shape"/></filter></defs></svg>