<svg xmlns="http://www.w3.org/2000/svg" width="28" height="28" fill="none"><path d="M0 14C0 6.267 6.267 0 14 0c7.734 0 14 6.267 14 14 0 6.766-4.797 12.41-11.176 13.716-.911.187-1.856.284-2.82.284H0V14Z"/><path fill="#fff" d="M23.688 12.674H17.38l-1.486 2.574h5.202c-.815 4.475-5.793 7.523-10.767 4.945a5.857 5.857 0 0 1-2.503-2.48C4.964 12.267 8.873 6.786 14.032 6.786c2.127 0 4.042.931 5.358 2.408l1.333-2.31a9.695 9.695 0 0 0-7.38-2.643c-4.866.335-8.811 4.37-9.048 9.24-.27 5.593 4.2 10.226 9.733 10.226 5.534 0 9.748-4.373 9.748-9.747 0-.437-.033-.866-.088-1.285Z"/></svg>